<?xml version="1.0" encoding="UTF-8" standalone="no"?>
<svg
   width="1920"
   height="1080"
   viewBox="0 0 1920 1080"
   version="1.1"
   id="svg5"
   sodipodi:docname="neonatox-orange.svg"
   inkscape:version="1.4.2 (ebf0e940d0, 2025-05-08)"
   xmlns:inkscape="http://www.inkscape.org/namespaces/inkscape"
   xmlns:sodipodi="http://sodipodi.sourceforge.net/DTD/sodipodi-0.dtd"
   xmlns="http://www.w3.org/2000/svg"
   xmlns:svg="http://www.w3.org/2000/svg">
  <sodipodi:namedview
     id="namedview5"
     pagecolor="#ffffff"
     bordercolor="#000000"
     borderopacity="0.25"
     inkscape:showpageshadow="2"
     inkscape:pageopacity="0.0"
     inkscape:pagecheckerboard="0"
     inkscape:deskcolor="#d1d1d1"
     inkscape:zoom="0.24895833"
     inkscape:cx="960"
     inkscape:cy="538.24268"
     inkscape:window-width="1360"
     inkscape:window-height="715"
     inkscape:window-x="0"
     inkscape:window-y="0"
     inkscape:window-maximized="1"
     inkscape:current-layer="svg5" />
  <defs
     id="defs4">
    <linearGradient
       id="orange-grad1"
       x1="0%"
       y1="0%"
       x2="100%"
       y2="0%">
      <stop
         offset="0%"
         style="stop-color:#ffb74d;stop-opacity:1"
         id="stop1" />
      <stop
         offset="100%"
         style="stop-color:#e65100;stop-opacity:1"
         id="stop2" />
    </linearGradient>
    <linearGradient
       id="orange-grad2"
       x1="0%"
       y1="0%"
       x2="0%"
       y2="100%">
      <stop
         offset="0%"
         style="stop-color:#ff9800;stop-opacity:1"
         id="stop3" />
      <stop
         offset="100%"
         style="stop-color:#bf360c;stop-opacity:1"
         id="stop4" />
    </linearGradient>
  </defs>
  <rect
     width="1920"
     height="1080"
     fill="url(#orange-grad2)"
     id="rect4" />
  <path
     d="     M0,800      C300,700 600,1000 900,900      C1200,800 1500,1000 1920,800      L1920,1080 L0,1080 Z   "
     fill="url(#orange-grad1)"
     opacity="0.7"
     id="path4" />
  <path
     d="     M0,600      C400,500 700,800 1100,700      C1400,600 1700,800 1920,600      L1920,1080 L0,1080 Z   "
     fill="#f57c00"
     opacity="0.4"
     id="path5" />
  <path
     style="fill:#ffffff;stroke-width:14.8502"
     d="m 1500.9529,834.43274 c -19.9226,-4.3222 -35.3613,-15.4023 -43.7845,-31.4238 -8.5505,-16.2637 -7.3765,-38.0502 2.8305,-52.5251 0.7961,-1.12864 1.4463,-2.27119 1.4463,-2.53955 0,-0.26875 -1.5673,-1.1598 -3.4835,-1.98102 -17.6488,-7.56543 -34.3802,-30.88501 -29.6334,-41.30286 2.8521,-6.25979 11.5186,-6.21185 23.069,0.13359 7.4194,4.07221 18.1482,15.16945 22.0589,22.81641 1.684,3.29276 3.2356,5.88424 3.4481,5.75906 4.071,-2.39711 16.3782,-7.65674 20.4829,-8.75375 7.3031,-1.95191 27.1471,-2.03713 34.0093,-0.14852 7.2853,2.00774 12.858,4.27224 17.7246,7.20293 2.4702,1.48756 4.7248,2.70453 5.01,2.70453 0.2829,0 1.4165,-1.82598 2.515,-4.05795 6.4277,-13.06003 20.114,-24.91731 32.5111,-28.1661 4.6937,-1.22958 5.522,-1.25186 8.5022,-0.22121 14.7393,5.09508 -1.1968,34.61861 -24.4261,45.25359 -2.3921,1.09445 -4.3492,2.17272 -4.3492,2.39491 0,0.22121 0.7069,1.39739 1.5721,2.61109 2.6969,3.78735 5.2619,10.41195 6.6123,17.07685 5.9903,29.5629 -15.4355,58.3158 -48.5379,65.1367 -7.2575,1.4954 -20.7638,1.5119 -27.5777,0.031 z m 33.5538,-12.5954 c 8.8952,-3.0659 14.3629,-6.4463 20.8295,-12.8772 17.5395,-17.443 17.7643,-43.1316 0.5284,-60.40684 -10.9312,-10.95649 -24.6603,-16.46397 -41.0856,-16.48193 -23.8595,-0.0314 -44.6492,13.66008 -51.5649,33.94587 -2.5138,7.3742 -2.4427,17.4731 0.1808,25.2823 4.9994,14.8938 17.9706,26.7239 34.6025,31.5588 10.587,3.0777 25.8591,2.6508 36.5113,-1.0202 z m -35.96,-6.6032 c -11.4597,-2.5323 -15.3864,-7.7137 -9.6582,-12.7433 8.7655,-7.6963 32.9889,-6.1816 37.5537,2.3483 2.1536,4.0236 -3.8081,8.9827 -12.7716,10.6241 -5.6881,1.041 -9.6448,0.9816 -15.1239,-0.2287 z m 13.913,-5.6954 c 7.507,-3.7501 -2.1689,-9.0065 -11.7037,-6.3581 -1.548,0.4306 -3.267,1.3261 -3.8198,1.9929 -3.4054,4.1034 9.0412,7.6035 15.5235,4.3652 z m -28.9851,-22.3437 c -3.449,-1.8151 -6.6249,-4.9707 -7.8248,-7.775 -1.3155,-3.0751 -1.3202,-2.9435 0.1493,-4.4141 3.3637,-3.3637 12.8769,0.995 16.2457,7.4426 1.387,2.6539 1.3689,3.3207 -0.1179,4.814 -1.541,1.5413 -5.4493,1.5101 -8.4472,-0.074 z m 41.794,-0.7054 c -0.6683,-0.6683 -1.2133,-1.7985 -1.2117,-2.5121 0,-2.4086 3.0635,-6.3397 6.7584,-8.6876 2.9374,-1.8665 4.37,-2.2891 7.1514,-2.1095 3.3685,0.2168 3.4855,0.3104 3.6989,2.9296 0.5347,6.5535 -12.1767,14.5997 -16.397,10.3796 z m 48.9289,-46.78113 c 11.0785,-5.536 21.8557,-20.96222 19.3143,-27.64632 -0.9575,-2.52009 -1.9771,-3.17126 -4.9872,-3.18611 -8.7026,-0.0444 -24.2572,14.73602 -26.6433,25.3156 -0.6369,2.82507 0.2318,6.2825 1.8341,7.30167 1.8942,1.20435 5.8473,0.53165 10.4821,-1.78484 z m -106.237,-0.36816 c 1.8388,-1.83874 1.4805,-6.81579 -0.8463,-11.78007 -2.528,-5.39091 -12.1783,-15.23393 -17.4386,-17.78683 -5.9224,-2.87439 -8.6138,-3.01014 -11.0664,-0.55837 -1.7386,1.73895 -2.0066,2.53762 -1.6302,4.85839 1.2786,7.88204 11.2986,20.24351 19.7882,24.41313 4.7256,2.32108 9.3718,2.67513 11.1941,0.85391 z m -463.092,87.81509 c -4.90719,-2.9921 -4.8685,-2.6774 -4.8685,-39.4637 0,-23.1693 0.2645,-33.84018 0.8702,-35.01397 2.5373,-4.9264 7.1268,-6.97689 11.5318,-5.1524 1.6383,0.67864 6.1122,5.96652 15.1157,17.86607 l 12.7888,16.9021 h 3.2671 c 1.7971,0 3.6848,-0.4173 4.1949,-0.9281 0.6401,-0.6401 0.9282,-4.5555 0.9282,-12.6159 0,-13.79508 1.0499,-18.16846 4.9274,-20.5332 1.3291,-0.81081 3.3205,-1.47463 4.4267,-1.47609 2.5244,-0.004 6.9341,2.91435 8.2075,5.43098 0.7277,1.439 0.9683,10.16551 0.9772,35.41521 0.012,36.7309 -0.031,37.0841 -4.5647,39.7639 -2.8819,1.7025 -7.1999,1.6864 -9.1636,-0.031 -0.8494,-0.7439 -5.3003,-6.3961 -9.8915,-12.5603 -4.5913,-6.1641 -10.2107,-13.5554 -12.4877,-16.425 -3.9482,-4.9759 -4.2922,-5.2173 -7.4306,-5.2173 -1.8098,0 -3.7081,0.4173 -4.2182,0.9281 -0.643,0.643 -0.9326,4.7353 -0.9445,13.3332 -0.016,10.5125 -0.2404,12.8992 -1.4851,15.6395 -2.4108,5.31 -7.4517,7.0236 -12.18,4.1404 z m 322.0854,-13.7743 c -0.6369,-0.202 -1.9418,-1.0782 -2.8985,-1.949 -1.6966,-1.5434 -1.7391,-1.9725 -1.7316,-17.4859 0,-15.0653 0.1022,-16.1076 1.8212,-19.7685 2.3539,-5.0151 5.2862,-7.8837 10.5378,-10.3081 8.5632,-3.9533 18.9604,-1.7039 25.0593,5.4212 4.4874,5.2426 5.0862,8.2285 5.0862,25.3727 0,14.7555 -0.043,15.2322 -1.7394,16.8001 -2.6699,2.4772 -5.5754,2.5704 -8.4167,0.2703 -1.649,-1.335 -1.862,-2.2465 -2.2113,-9.4686 l -0.385,-7.9911 h -8.5027 -8.5022 l -0.385,7.343 c -0.2122,4.0387 -0.8137,8.0891 -1.3363,9.0009 -1.0412,1.8181 -4.5656,3.341 -6.3931,2.7631 z m 24.5837,-34.2829 c 0.1689,-1.4776 -0.3576,-2.5048 -1.9324,-3.747 -1.8093,-1.4271 -2.8997,-1.6586 -6.584,-1.3945 -2.8517,0.2036 -4.9727,0.8213 -5.9899,1.7412 -1.5457,1.3989 -2.1013,4.2663 -1.0338,5.3341 0.2986,0.297 3.8631,0.4425 7.9227,0.3222 7.3341,-0.2185 7.3828,-0.2318 7.617,-2.2553 z m -103.1872,30.7004 -2.1689,-1.8668 0.043,-14.5583 c 0.039,-11.8234 0.2908,-15.2017 1.3677,-17.9834 2.7669,-7.1558 8.0131,-11.5566 15.7558,-13.2172 3.2985,-0.7068 4.812,-0.6251 8.7179,0.4708 6.8029,1.9087 10.4837,4.8676 13.2014,10.612 2.2608,4.7786 2.2648,4.8142 2.2652,19.7014 8e-4,14.8048 0,14.9283 -1.8966,16.8115 -2.418,2.418 -5.3817,2.418 -7.7997,0 -1.8836,-1.8836 -1.897,-2.0042 -1.897,-16.86 v -14.9629 l -2.1983,-2.106 c -2.6392,-2.5287 -6.674,-3.3289 -10.4691,-2.0763 -4.8462,1.5993 -5.1103,2.5498 -5.1103,18.4028 0,10.921 -0.2593,14.6668 -1.13,16.3526 -1.9028,3.6794 -5.3102,4.182 -8.6813,1.2801 z m -139.7522,-1.1286 c -9.1837,-4.3985 -11.9421,-9.5028 -11.9561,-22.1253 -0.01,-7.3026 0.2452,-9.0499 1.7978,-12.3832 2.2565,-4.8456 6.0111,-8.6557 10.5361,-10.6921 4.2707,-1.9219 21.2761,-2.7992 25.7352,-1.3276 3.0137,0.9949 4.9074,4.2526 4.0472,6.9631 -0.9712,3.0609 -4.2118,3.9131 -14.8774,3.9131 -11.5521,0 -13.6028,0.7619 -13.2006,4.9052 0.2286,2.3587 0.3803,2.4533 4.6571,2.9129 4.8532,0.5212 8.2826,2.3019 8.4247,4.3737 0.3029,4.4182 -1.1316,5.6883 -7.6155,6.7442 -4.7326,0.7707 -5.2515,1.0351 -5.4595,2.7856 -0.1486,1.2147 0.3878,2.4938 1.4315,3.4394 1.436,1.3009 3.1778,1.5578 12.8609,1.8919 10.6081,0.367 11.2771,0.4827 12.6743,2.2114 1.8966,2.3458 1.8637,4.0428 -0.1336,6.5733 -1.6007,2.0349 -1.6111,2.0366 -12.9467,2.036 -10.9026,-6e-4 -11.5255,-0.089 -15.9824,-2.2218 z m 74.3855,0.885 c -5.1658,-1.9189 -8.7423,-5.0322 -11.1603,-9.7145 -1.751,-3.3906 -2.1264,-5.2497 -2.3977,-11.8735 -0.3654,-8.9101 0.7395,-13.5172 4.4733,-18.6728 4.931,-6.807 16.3125,-9.4468 24.2219,-5.6178 8.0779,3.9103 11.4579,9.7383 11.9656,20.6315 0.3863,8.3013 -0.9311,13.8267 -4.4567,18.6948 -4.6555,6.4268 -14.959,9.408 -22.6461,6.5523 z m 13.107,-12.1217 c 2.1553,-1.8541 2.1687,-1.9233 2.1687,-11.2746 0,-9.3513 -0.012,-9.4206 -2.1687,-11.2746 -1.7262,-1.485 -3.0394,-1.8655 -6.4363,-1.8655 -3.6861,0 -4.5753,0.3073 -6.5269,2.2595 -2.2232,2.2232 -2.2593,2.3949 -2.2593,10.7618 0,8.0195 0.1186,8.6376 2.001,10.8806 1.815,2.157 2.4221,2.3781 6.527,2.3781 3.6698,0 4.9359,-0.3532 6.6945,-1.8653 z m 217.784,11.5623 c -1.89,-1.8901 -1.897,-1.9571 -1.897,-17.6231 0,-11.2006 -0.2672,-15.9927 -0.9285,-16.6533 -0.5108,-0.5094 -2.8839,-0.9282 -5.2756,-0.9282 -3.6124,0 -4.6489,-0.3194 -6.1235,-1.8895 -1.286,-1.3692 -1.6424,-2.4184 -1.2935,-3.8107 1.0617,-4.2303 1.5768,-4.348 19.0295,-4.348 h 16.1204 l 1.6023,2.0365 c 2.071,2.6333 2.0231,4.2546 -0.1886,6.3311 -1.3886,1.3039 -2.7394,1.6806 -6.0289,1.6806 -2.3319,0 -4.6575,0.4173 -5.1675,0.9282 -0.6593,0.6608 -0.9281,5.4198 -0.9281,16.5053 0,15.4642 0,15.5928 -1.8954,17.6231 -2.3645,2.5514 -4.5786,2.598 -7.0284,0.1485 z m 181.8795,0.6876 c -4.5527,-2.4702 -3.7857,-5.044 4.8206,-16.1809 2.5508,-3.3009 4.6379,-6.663 4.6379,-7.4713 0,-0.8079 -2.7826,-5.1196 -6.1836,-9.5808 -3.4006,-4.4611 -6.1836,-8.8131 -6.1836,-9.671 0,-2.1514 3.3955,-5.3544 5.6764,-5.3544 2.3386,0 3.8363,1.3247 8.9576,7.9227 5.4182,6.9805 6.2127,6.9187 12.3177,-0.9578 2.9995,-3.87 5.5208,-6.3592 6.7546,-6.6688 4.0796,-1.0246 8.2051,3.4496 6.36,6.8969 -0.499,0.9326 -3.2831,4.8557 -6.1871,8.7194 -2.9041,3.8636 -5.2804,7.787 -5.2804,8.7184 0,0.9312 2.7826,5.3896 6.1837,9.9067 3.401,4.5172 6.1836,8.7078 6.1836,9.3123 0,1.6303 -4.2863,5.618 -6.0387,5.618 -1.9677,0 -3.6474,-1.5481 -8.5953,-7.9226 -5.7098,-7.3557 -7.1447,-7.0488 -14.3747,3.074 -2.0266,2.8376 -4.775,4.9097 -6.3899,4.8177 -0.2986,-0.016 -1.4954,-0.5479 -2.6588,-1.1791 z"
     id="path1" />
</svg>
